<?xml version="1.0" encoding="UTF-8"?>
<svg id="Capa_1" data-name="Capa 1" xmlns="http://www.w3.org/2000/svg" viewBox="0 0 77.31 77.3">
  <path d="M77.29,6.28c-.05-1.65-.66-3.08-1.81-4.27C73.91,.37,71.92,0,69.76,0c-11.5,.02-23,0-34.49,.02-4.26,0-8.16,2.97-9.1,7.13-.42,1.86-.33,3.84-.36,5.77-.02,1.83,1.45,3.22,3.21,3.2,1.75-.02,3.12-1.38,3.17-3.18,.03-.98,0-1.96,.01-2.94,.02-2.22,1.3-3.53,3.51-3.53,4.55,0,9.11,0,13.66,0,.18,0,.36,.03,.73,.07-3.72,1.3-5.04,3.85-5.02,7.5,.07,15.37,.03,30.74,.03,46.11v1c-.31,.02-.54,.04-.76,.04-2.87,0-5.74,0-8.6,0-2.25,0-3.54-1.3-3.55-3.57,0-1.91,0-3.82,0-5.74,0-.4-.01-.81-.11-1.19-.4-1.52-1.88-2.51-3.43-2.35-1.58,.17-2.82,1.47-2.85,3.1-.04,2.16-.03,4.33-.01,6.49,.05,5.52,4.27,9.7,9.8,9.72,2.89,0,5.79,0,8.68,0,.26,0,.53,0,.85,0,0,1.25-.03,2.38,0,3.5,.07,2.01,.91,3.68,2.55,4.81,.86,.6,1.93,.9,2.9,1.34h1.96c.5-.16,1-.3,1.49-.47,6.12-2.04,12.25-4.08,18.37-6.13,3.33-1.11,4.9-3.31,4.9-6.84,0-17.94,0-35.87,0-53.81,0-1.26,.02-2.52-.01-3.77Z"/>
  <path d="M34.22,29.67c-4.11-4.11-8.21-8.22-12.32-12.32-1.22-1.22-2.51-1.56-3.82-.97-1.43,.64-1.98,1.81-1.97,3.34,.03,2.82,0,5.63,0,8.45v.82h-.95c-3.72,0-7.45,.05-11.17-.02-1.99-.04-3.34,.68-3.99,2.59v1.36c.7,1.93,2.12,2.59,4.11,2.55,3.7-.08,7.39-.02,11.09-.02,.29,0,.58,.03,.91,.05v.91c0,2.74,0,5.48,0,8.22,0,.45,0,.92,.12,1.34,.68,2.43,3.61,3.12,5.48,1.27,4.18-4.15,8.33-8.32,12.49-12.48,1.64-1.64,1.64-3.45,0-5.08Z"/>
</svg>