<?xml version="1.0" encoding="UTF-8"?>
<svg id="Capa_1" data-name="Capa 1" xmlns="http://www.w3.org/2000/svg" viewBox="0 0 73.18 81.84">
  <path d="M25.88,81.84c-2.34-.49-4.28-1.82-6.3-2.98-4.98-2.87-9.95-5.75-14.93-8.62C1.56,68.46,.01,65.77,0,62.23,0,44.56,0,26.9,0,9.24,.01,3.88,3.89,0,9.23,0c13.11,0,26.21,0,39.32,0,5.36,0,9.23,3.85,9.26,9.2,.02,3.54,0,7.09,0,10.63,0,1.94-1.21,3.3-2.93,3.31-1.72,.01-2.95-1.35-2.95-3.28,0-3.54,0-7.09,0-10.63,0-2.12-1.2-3.35-3.3-3.35-11.27,0-22.54,0-33.81,0-.2,0-.39,.03-.8,.06,1.37,.79,2.55,1.48,3.74,2.17,4.45,2.57,8.88,5.16,13.35,7.7,3.29,1.87,4.89,4.64,4.88,8.44-.03,12.52-.01,25.04-.01,37.56v1.11c.34,.02,.62,.04,.9,.04,3.84,0,7.67,0,11.51,0,2.34,0,3.54-1.2,3.54-3.53,0-3.04,0-6.07,0-9.11,0-1.89,1.19-3.21,2.89-3.24,1.73-.03,2.98,1.31,2.98,3.24,0,3.12,.02,6.23,0,9.35-.04,5.13-3.65,8.94-8.76,9.1-3.99,.12-7.99,.04-11.99,.04-.32,0-.63,0-1.08,0,0,.38,0,.68,0,.99-.03,1.52,.1,3.06-.13,4.55-.56,3.75-3.33,6.53-7.07,7.34-.17,.04-.34,.11-.51,.17h-2.4Z"/>
  <path d="M63.02,31.27c-.97-.95-1.95-1.89-2.9-2.85-1.32-1.32-1.38-3.14-.17-4.33,1.2-1.18,2.98-1.13,4.28,.16,2.66,2.65,5.32,5.3,7.96,7.97,1.33,1.35,1.32,3.04-.03,4.39-2.65,2.66-5.3,5.32-7.97,7.97-1.29,1.28-3.09,1.31-4.27,.11-1.18-1.19-1.12-2.98,.16-4.28,.91-.93,1.84-1.85,2.76-2.78,.04-.04,.06-.09,.19-.3h-.98c-6.66,0-13.32,0-19.97,0-.5,0-1.02-.03-1.5-.18-1.37-.43-2.15-1.81-1.92-3.28,.22-1.36,1.41-2.38,2.89-2.38,5.3-.02,10.6,0,15.9,0,1.83,0,3.66,0,5.49,0,.03-.07,.06-.14,.09-.21Z"/>
</svg>