<?xml version="1.0" encoding="UTF-8"?>
<svg id="Capa_1" data-name="Capa 1" xmlns="http://www.w3.org/2000/svg" viewBox="0 0 93 93">
  <path d="M92.27,38.41c-3.06-15.67-11.81-27.01-26.12-34.03C61.05,1.87,55.6,.54,49.93,.15c-.24-.02-.47-.1-.7-.15h-5.45c-1.76,.24-3.54,.39-5.29,.73C23.76,3.51,12.75,11.52,5.51,24.62,1.42,32.01-.42,40.04,.08,48.46c.98,16.56,8.61,29.29,22.72,38,7.83,4.83,16.49,7.04,25.65,6.45,18.43-1.18,31.84-10.2,40.14-26.69,2.55-5.07,3.87-10.53,4.26-16.21,.02-.26,.1-.52,.15-.78v-5.45c-.24-1.79-.39-3.6-.73-5.37ZM46.5,13.93c8.47-.01,15.35,6.83,15.4,15.32,.05,8.44-6.96,15.45-15.42,15.42-8.45-.03-15.36-6.96-15.35-15.39,.01-8.47,6.89-15.34,15.37-15.35Zm22.15,58.75c-5.08,4.25-10.88,6.92-17.47,7.8-8.84,1.17-16.94-.8-24.27-5.85-1.35-.93-2.69-2.01-3.7-3.29-1.73-2.19-1.39-4.8-.77-7.31,1.76-7.12,7.84-11.82,15.34-11.88,2.93-.02,5.87,0,8.81,0,0,.05,7.28-.11,10.88,.21,7.59,.68,13.56,7.49,13.56,15.13,0,2.08-.76,3.86-2.36,5.19Z"/>
</svg>